<?xml version="1.0" encoding="UTF-8" standalone="no"?>
<!-- Created with Inkscape (http://www.inkscape.org/) -->

<svg version="1.1" id="svg360" width="180" height="180" viewBox="0 0 180 180" sodipodi:docname="icon-head.svg" inkscape:export-filename="icon-body-128.png" inkscape:export-xdpi="68.26667" inkscape:export-ydpi="68.26667" inkscape:version="1.2.2 (732a01da63, 2022-12-09)" xmlns:inkscape="http://www.inkscape.org/namespaces/inkscape" xmlns:sodipodi="http://sodipodi.sourceforge.net/DTD/sodipodi-0.dtd" xmlns="http://www.w3.org/2000/svg" xmlns:svg="http://www.w3.org/2000/svg">
  <defs id="defs543" />
  <sodipodi:namedview id="namedview362" pagecolor="#ffffff" bordercolor="#000000" borderopacity="0" inkscape:showpageshadow="2" inkscape:pageopacity="0" inkscape:pagecheckerboard="0" inkscape:deskcolor="#d1d1d1" showgrid="false" showguides="false" inkscape:zoom="2" inkscape:cx="114.25" inkscape:cy="94.25" inkscape:window-width="1440" inkscape:window-height="830" inkscape:window-x="-6" inkscape:window-y="-6" inkscape:window-maximized="1" inkscape:current-layer="g366" showborder="false" />
  <g inkscape:groupmode="layer" inkscape:label="robo-bit-eater" id="g366" transform="matrix(0.84028854,0,0,1,-1.9687839,-3.290504)">
    <path style="display:inline;fill:#e4a1f8;stroke-width:0.32" d="m 121.91261,107.43173 c -15.95634,-5.44064 -15.58916,-32.350878 0.49857,-36.541201 10.13619,-2.640141 19.31958,6.180064 19.34326,18.578281 0.0236,12.34773 -9.917,21.347 -19.84183,17.96292 z m 51.88087,0.22186 c -16.15498,-4.34432 -16.59891,-31.798351 -0.59279,-36.66006 10.01929,-3.043267 19.4097,5.884007 19.43375,18.47528 0.0228,11.96304 -9.12926,20.79641 -18.84096,18.18478 z" id="path1061" sodipodi:nodetypes="sssssscs" />
    <path style="display:inline;fill:#a614e1;stroke-width:0.32" d="m 88.319996,48.198293 c 28.576704,0.02671 116.776764,-1.277843 117.869234,0.04594 1.09247,1.323783 0.35771,22.586968 0.60909,29.953552 0.0817,29.162215 2.39555,27.105465 8.42857,29.167035 -2.11496,16.88221 -9.46907,56.49077 -11.8669,58.74902 -2.12634,1.4462 -77.45628,7.00364 -114.508086,10.78166 z M 123.7694,162.58658 c 0,0 28.91459,-1.77009 31.29059,-2.02476 12.05157,-1.21854 23.6112,-2.74254 35.82,-4.20343 4.42063,-0.53697 2.95749,0.25987 4.93205,-9.30589 3.31831,-16.07555 5.81342,-26.36911 6.57278,-29.6725 1.87746,-8.16745 3.66191,-5.61544 -4.68532,-4.31718 -1.8357,1.04914 -45.84841,16.06516 -79.24114,12.57831 z m 6.19689,-55.05912 c 15.66851,-4.87333 15.67847,-31.656727 0.0136,-36.49512 -10.59842,-3.27352 -20.58002,6.488016 -19.80427,19.367657 0.71715,11.906823 10.19733,20.111253 19.7907,17.127463 z m 50.29185,0.1552 c 15.08884,-3.93014 16.96142,-28.786848 2.69965,-35.835398 -7.25353,-3.58489 -15.90535,-0.06227 -19.63072,7.992735 -6.49523,14.043981 3.95155,31.223403 16.93107,27.842663 z M 21.75013,148.92352 C 14.894531,138.74415 8.387562,114.294 21.70325,100.43202 c 13.315688,-13.861978 27.935661,-8.784676 33.023597,11.47855 5.087936,20.26323 2.47331,24.63509 -3.768388,35.15156 -6.241698,10.51646 -22.352727,12.04077 -29.208326,1.86139 z m 16.632458,-9.92338 c 5.811958,-2.56294 7.64231,-9.87542 6.173986,-18.5236 -3.29527,-19.40856 -19.001675,-16.56914 -19.824193,3.39765 -0.510956,12.40354 5.47458,18.73121 13.650207,15.12595 z" id="path1059" sodipodi:nodetypes="czccccccccsscccssccsssssszzzssssss" />
    <path id="path451" style="display:inline;fill:#64009b;stroke-width:0.32" d="m 186.82206,113.49715 c 0,0 9.0201,-0.96874 10.37744,-1.18423 9.12049,-1.44794 8.06278,-1.60027 6.18532,6.56718 -0.75936,3.30339 -6.82851,37.59084 -9.09505,37.8529 l -12.68122,1.46625 z m -63.3249,50.14134 c -1.15226,-0.90921 -1.40008,-2.36437 -2.68153,-11.9584 -0.62296,-4.66399 -1.67269,-10.26168 -1.47575,-10.154 24.2453,-6.33727 44.34804,7.08094 50.18489,17.92778 0,0 -39.31407,6.27251 -46.02761,4.18462 z" sodipodi:nodetypes="cssscccsccc" />
    <path style="display:inline;fill:#580091;stroke-width:0.32" d="m 88.991842,176.92355 c 0,0 -41.488166,-0.79887 -56.161699,-0.9235 -6.668822,0.16649 -5.768388,-3.11991 -5.904734,-12.07996 -0.02498,-6.028 -0.08819,-10.31726 0.01665,-10.31726 4.288823,2.57941 8.018538,1.84596 12.417945,1.3499 -1.779296,0.90602 10.466851,0.71591 13.097922,-0.20333 22.067657,-7.70998 22.038126,-52.22014 0.179347,-59.846584 -8.468,-1.998611 -12.902269,-1.276458 -12.902269,-1.276458 -3.208259,-1.13087 -10.278955,0.511539 -11.880779,1.885305 0,0 -0.17273,-2.387533 -0.325151,-9.676587 C 27.314872,75.591656 27.82475,74.522639 27.82475,74.522639 L 88.451328,48.149152 Z m -56.93799,-36.53847 c -9.23783,-3.81764 -10.739549,-22.82202 -2.616176,-30.7205 6.240662,-6.0679 14.319206,-0.74096 16.476079,10.17542 2.412416,12.20971 -5.532348,23.98655 -13.859903,20.54508 z" id="path1055" sodipodi:nodetypes="ccccsccssccccssss" />
    <path style="display:inline;fill:#440173;stroke-width:0.32" d="m 145.76,142.28306 c -6.76146,-2.09624 -20.18161,-1.7871 -26.42471,-0.51074 0,0 -1.92141,-16.55938 -1.92017,-16.56765 1.04283,-2.32611 59.64663,-10.68392 70.20248,-11.76933 0.83651,15.65022 -4.6869,41.85233 -5.91778,44.74278 l -12.45538,1.30895 C 161.69138,152.23159 154.99296,145.19067 145.76,142.28306 Z M 38.708499,155.11433 c 0.204881,-0.099 1.257906,-0.4044 2.194626,-0.7084 22.364633,-8.04647 19.306383,-54.449894 -1.185656,-60.765378 0,0 0.803666,-0.739761 7.482529,-0.2358 24.389273,1.840317 32.116196,47.793878 8.936522,59.995988 -8.930375,4.70107 -17.428021,1.71359 -17.428021,1.71359 z M 24.731998,41.751036 c 0,0 -1.803727,0.0049 -9.981955,0.256624 C 6.5718149,42.259362 9.4761978,42.47099 5.7522543,35.071057 2.0283108,27.671124 -0.27842501,25.538489 7.7481204,17.657645 15.774666,9.7768011 17.195916,10.319333 25.778995,13.371399 c 8.583078,3.052065 9.509916,1.968585 8.977092,12.131396 -0.532824,10.162811 -0.96737,9.606871 -0.96737,9.606871 0,0 6.46547,6.116854 13.425035,12.980326 12.653753,12.47904 12.40547,12.639037 12.40547,12.639037 l -7.917342,3.694888 z" id="path1053" sodipodi:nodetypes="scccccscssssczzzzzcscccz" />
  </g>
</svg>
