<?xml version="1.0" encoding="UTF-8" standalone="no"?>
<!-- Created with Inkscape (http://www.inkscape.org/) -->

<svg version="1.1" id="svg360" width="300" height="300" viewBox="0 0 300 300" sodipodi:docname="icon-full.svg" inkscape:export-filename="icon-full-128.png" inkscape:export-xdpi="40.959999" inkscape:export-ydpi="40.959999" inkscape:version="1.2.2 (732a01da63, 2022-12-09)" xmlns:inkscape="http://www.inkscape.org/namespaces/inkscape" xmlns:sodipodi="http://sodipodi.sourceforge.net/DTD/sodipodi-0.dtd" xmlns="http://www.w3.org/2000/svg" xmlns:svg="http://www.w3.org/2000/svg">
  <defs id="defs543" />
  <sodipodi:namedview id="namedview362" pagecolor="#ffffff" bordercolor="#000000" borderopacity="0" inkscape:showpageshadow="2" inkscape:pageopacity="0" inkscape:pagecheckerboard="0" inkscape:deskcolor="#d1d1d1" showgrid="false" showguides="false" inkscape:zoom="1.335" inkscape:cx="150.93633" inkscape:cy="153.93258" inkscape:window-width="1440" inkscape:window-height="830" inkscape:window-x="-6" inkscape:window-y="-6" inkscape:window-maximized="1" inkscape:current-layer="g366" showborder="false" />
  <g inkscape:groupmode="layer" inkscape:label="robo-bit-eater" id="g366" transform="translate(0.6570145,0.209496)">
    <path style="display:inline;fill:#e4a1f8;stroke-width:0.32" d="m 121.91261,107.43173 c -15.95634,-5.44064 -15.58916,-32.350878 0.49857,-36.541201 10.13619,-2.640141 19.31958,6.180064 19.34326,18.578281 0.0236,12.34773 -9.917,21.347 -19.84183,17.96292 z m 51.88087,0.22186 c -16.15498,-4.34432 -16.59891,-31.798351 -0.59279,-36.66006 10.01929,-3.043267 19.4097,5.884007 19.43375,18.47528 0.0228,11.96304 -9.12926,20.79641 -18.84096,18.18478 z" id="path1061" sodipodi:nodetypes="sssssscs" />
    <path style="display:inline;fill:#a614e1;stroke-width:0.32" d="m 47.402108,270.95178 c 0.325839,-39.74724 6.093623,-57.05171 28.363337,-70.94302 8.530649,-5.32122 11.875399,-5.77316 11.970103,-5.83687 25.171012,-16.93328 68.305552,2.42301 67.416002,-6.90482 48.0033,1.87207 58.11743,53.79909 60.97081,65.21292 1.78678,11.20099 1.79018,37.4647 1.79018,37.4647 0,0 -64.53926,0.0447 -126.521942,0.0387 0,0 -0.953788,-12.78029 -0.916975,-25.49743 0.0864,-29.84786 0.0476,-30.09632 -4.543123,-29.09211 -3.374167,0.73809 -3.18177,-1.04371 -3.09665,28.67741 0.03701,12.92446 -0.0011,25.87142 -0.0011,25.87142 0,0 -8.739856,-0.0225 -17.554811,-0.0225 -8.814955,0 -18.043923,0.0553 -18.043923,0.0553 0,0 0.09822,-10.5035 0.168062,-19.0235 z M 88.319996,48.198293 c 28.576704,0.02671 116.776764,-1.277843 117.869234,0.04594 1.09247,1.323783 0.35771,22.586968 0.60909,29.953552 0.0817,29.162215 2.39555,27.105465 8.42857,29.167035 -2.11496,16.88221 -9.46907,56.49077 -11.8669,58.74902 -2.12634,1.4462 -77.45628,7.00364 -114.508086,10.78166 z M 123.7694,162.58658 c 0,0 28.91459,-1.77009 31.29059,-2.02476 12.05157,-1.21854 23.6112,-2.74254 35.82,-4.20343 4.42063,-0.53697 2.95749,0.25987 4.93205,-9.30589 3.31831,-16.07555 5.81342,-26.36911 6.57278,-29.6725 1.87746,-8.16745 3.66191,-5.61544 -4.68532,-4.31718 -1.8357,1.04914 -45.84841,16.06516 -79.24114,12.57831 z m 6.19689,-55.05912 c 15.66851,-4.87333 15.67847,-31.656727 0.0136,-36.49512 -10.59842,-3.27352 -20.58002,6.488016 -19.80427,19.367657 0.71715,11.906823 10.19733,20.111253 19.7907,17.127463 z m 50.29185,0.1552 c 15.08884,-3.93014 16.96142,-28.786848 2.69965,-35.835398 -7.25353,-3.58489 -15.90535,-0.06227 -19.63072,7.992735 -6.49523,14.043981 3.95155,31.223403 16.93107,27.842663 z M 21.75013,148.92352 C 14.894531,138.74415 8.387562,114.294 21.70325,100.43202 c 13.315688,-13.861978 27.935661,-8.784676 33.023597,11.47855 5.087936,20.26323 2.47331,24.63509 -3.768388,35.15156 -6.241698,10.51646 -22.352727,12.04077 -29.208326,1.86139 z m 16.632458,-9.92338 c 5.811958,-2.56294 7.64231,-9.87542 6.173986,-18.5236 -3.29527,-19.40856 -19.001675,-16.56914 -19.824193,3.39765 -0.510956,12.40354 5.47458,18.73121 13.650207,15.12595 z M 221.67087,149.6503 c -1.46266,-1.384 -1.01857,-13.54844 -0.0664,-14.50063 0.95219,-0.9522 13.78756,-1.10147 14.95624,0.0334 1.16868,1.13487 1.4993,13.44158 0.16518,14.50912 -1.33413,1.06754 -13.59238,1.34211 -15.05504,-0.0419 z m 19.65114,-35.30604 c 0.0505,-2.45267 9.94716,-11.64605 12.43313,-11.69122 2.48597,-0.0452 12.5588,9.83881 12.45393,11.99909 -0.10486,2.16028 -10.57557,11.90889 -12.58318,11.90549 -2.00762,-0.003 -12.35027,-9.4376 -12.30388,-12.21336 z m 30.86377,-36.38334 c -0.17727,-12.052234 -1.76121,-11.295054 11.01421,-11.370631 12.77542,-0.07558 11.27938,-0.286291 11.36777,11.900961 0.0884,12.187253 1.50748,10.545104 -11.1026,10.813291 -12.61009,0.268186 -11.10211,0.708613 -11.27938,-11.343621 z" id="path1059" sodipodi:nodetypes="csscccccsscscscczccccccccsscccssccsssssszzzssssssczzzzcszzcszzzzz" />
    <path id="path451" style="display:inline;fill:#64009b;stroke-width:0.32" d="m 186.82206,113.49715 c 0,0 9.0201,-0.96874 10.37744,-1.18423 9.12049,-1.44794 8.06278,-1.60027 6.18532,6.56718 -0.75936,3.30339 -6.82851,37.59084 -9.09505,37.8529 l -12.68122,1.46625 z m -63.3249,50.14134 c -1.15226,-0.90921 -1.40008,-2.36437 -2.68153,-11.9584 -0.62296,-4.66399 -1.67269,-10.26168 -1.47575,-10.154 24.2453,-6.33727 44.34804,7.08094 50.18489,17.92778 0,0 -39.31407,6.27251 -46.02761,4.18462 z" sodipodi:nodetypes="cssscccsccc" />
    <path style="display:inline;fill:#580091;stroke-width:0.32" d="m 21.374358,289.90222 c 0,0 -1.697407,-4.31386 0.09041,-13.42223 5.479725,-31.7785 13.990089,-67.96376 38.961156,-79.67996 4.527264,-2.47935 17.035435,-6.47054 17.035435,-6.47054 1.515433,1.16471 11.301739,3.84915 11.301739,3.84915 -8.099945,1.09351 -22.085774,12.35257 -29.136695,22.78139 -3.011341,4.45399 -7.204022,13.65597 -8.602265,18.88 -3.361684,12.55974 -3.02713,33.20954 -3.158971,41.33142 -0.131841,8.12188 -0.569843,12.81436 -0.569843,12.81436 z m 61.399013,-26.42276 c 0.06184,-28.36524 -1.131363,-28.33523 4.218579,-28.60886 5.349942,-0.27363 3.148595,1.93299 3.74259,27.75327 0.593995,25.82029 0.65641,27.36167 0.65641,27.36167 l -8.559877,-0.0406 c 0,0 -0.0858,-13.59785 -0.0577,-26.46522 z m 6.218471,-86.55591 c 0,0 -41.488166,-0.79887 -56.161699,-0.9235 -6.668822,0.16649 -5.768388,-3.11991 -5.904734,-12.07996 -0.02498,-6.028 -0.08819,-10.31726 0.01665,-10.31726 4.288823,2.57941 8.018538,1.84596 12.417945,1.3499 -1.779296,0.90602 10.466851,0.71591 13.097922,-0.20333 22.067657,-7.70998 22.038126,-52.22014 0.179347,-59.846584 -8.468,-1.998611 -12.902269,-1.276458 -12.902269,-1.276458 -3.208259,-1.13087 -10.278955,0.511539 -11.880779,1.885305 0,0 -0.17273,-2.387533 -0.325151,-9.676587 C 27.314872,75.591656 27.82475,74.522639 27.82475,74.522639 L 88.451328,48.149152 Z M 218.23999,142.28266 c -0.0479,-12.14423 -1.05875,-10.72136 11.21183,-10.7532 12.27058,-0.0318 10.77978,-0.57446 11.04495,10.97538 0.26517,11.54984 -0.25188,11.32444 -11.25291,11.28954 -11.00105,-0.0349 -10.95597,0.63251 -11.00387,-11.51172 z m 18.17966,7.14454 c 1.06767,-0.99468 1.09074,-13.29504 0.0268,-14.25794 -0.99651,-0.90183 -13.69703,-0.93568 -14.59497,-0.0389 -1.06101,1.05965 -1.03092,13.07891 0.0354,14.14524 1.14448,1.14448 13.33064,1.2716 14.53282,0.1516 z M 32.053852,140.38508 c -9.23783,-3.81764 -10.739549,-22.82202 -2.616176,-30.7205 6.240662,-6.0679 14.319206,-0.74096 16.476079,10.17542 2.412416,12.20971 -5.532348,23.98655 -13.859903,20.54508 z m 220.487758,-9.66991 c -2.01213,-0.87406 -16.06158,-15.21146 -16.06158,-16.39076 0,-1.02357 2.96944,-4.17211 10.2173,-10.83357 1.13151,-1.03996 2.40184,-2.24702 2.82296,-2.68235 3.98858,-4.123175 4.45191,-3.95962 13.09922,4.62398 10.34813,10.27189 10.25881,8.06148 0.7082,17.52553 -8.58517,8.50736 -8.76365,8.63571 -10.7861,7.75717 z m 3.5412,-6.12957 c 2.3241,-2.11135 7.62063,-7.19691 8.93273,-8.57692 1.49618,-1.57363 1.33954,-1.82547 -4.83217,-7.76868 -6.82701,-6.57425 -6.00687,-6.42873 -10.77471,-1.9118 -2.09474,1.98452 -4.70863,4.45444 -5.80863,5.48871 -3.09118,2.90649 -3.31225,2.52041 6.7135,11.7247 3.68589,3.38388 3.27538,3.3096 5.76928,1.04399 z m 26.88176,-32.79552 c -15.01314,0.09452 -13.41175,1.52845 -13.5078,-13.588221 -0.0961,-15.116671 -1.94683,-13.694999 13.60361,-13.813079 15.55022,-0.11808 13.89992,-2.037457 13.95711,13.510436 0.0572,15.547894 0.96023,13.796346 -14.05292,13.890864 z m 9.61798,-4.574204 c 1.2988,-1.236806 1.1132,-17.395757 -0.12916,-18.829199 -1.24236,-1.433442 -17.21495,-0.664403 -18.60504,0.484783 -1.39009,1.149187 -0.86332,17.780252 0.20457,19.017223 1.0679,1.236971 17.23083,0.563999 18.52963,-0.672807 z" id="path1055" sodipodi:nodetypes="cccccsszccczzccscccccsccsscccczzzzzsscccssssssssssssssssssszzszzzzzzz" />
    <path style="display:inline;fill:#440173;stroke-width:0.32" d="m 111.93436,197.9615 c -11.21544,-0.67332 -23.869256,-3.59023 -23.869256,-3.59023 L 76.947147,190.4368 c 0,0 6.944037,-0.92418 9.892012,-1.65664 0.265709,-0.23842 -0.860289,-12.02386 -0.860289,-12.02386 -2.103057,-0.23165 1.018707,0.25572 3.127576,0.0849 23.636504,-2.43646 64.253544,-5.9071 64.253544,-5.9071 1.96222,-0.33718 2.90412,18.02784 0.93408,19.9019 -5.99772,6.38581 -31.14427,7.79885 -42.35971,7.12553 z M 145.76,142.28306 c -6.76146,-2.09624 -20.18161,-1.7871 -26.42471,-0.51074 0,0 -1.92141,-16.55938 -1.92017,-16.56765 1.04283,-2.32611 59.64663,-10.68392 70.20248,-11.76933 0.83651,15.65022 -4.6869,41.85233 -5.91778,44.74278 l -12.45538,1.30895 C 161.69138,152.23159 154.99296,145.19067 145.76,142.28306 Z M 38.708499,155.11433 c 0.204881,-0.099 1.257906,-0.4044 2.194626,-0.7084 22.364633,-8.04647 19.306383,-54.449894 -1.185656,-60.765378 0,0 0.803666,-0.739761 7.482529,-0.2358 24.389273,1.840317 32.116196,47.793878 8.936522,59.995988 -8.930375,4.70107 -17.428021,1.71359 -17.428021,1.71359 z M 24.731998,41.751036 c 0,0 -1.803727,0.0049 -9.981955,0.256624 C 6.5718149,42.259362 9.4761978,42.47099 5.7522543,35.071057 2.0283108,27.671124 -0.27842501,25.538489 7.7481204,17.657645 15.774666,9.7768011 17.195916,10.319333 25.778995,13.371399 c 8.583078,3.052065 9.509916,1.968585 8.977092,12.131396 -0.532824,10.162811 -0.96737,9.606871 -0.96737,9.606871 0,0 6.46547,6.116854 13.425035,12.980326 12.653753,12.47904 12.40547,12.639037 12.40547,12.639037 l -7.917342,3.694888 z" id="path1053" sodipodi:nodetypes="cccccccczcscccccscssssczzzzzcscccz" />
  </g>
</svg>
